<svg id="Camada_1" data-name="Camada 1" xmlns="http://www.w3.org/2000/svg" viewBox="0 0 439.24 402.94"><defs><style>.cls-1{isolation:isolate;}.cls-2{fill:#474647;}.cls-3{fill:#b99226;}.cls-4{fill:#c93;}.cls-5{fill:#636365;}</style></defs><title>logo</title><g class="cls-1"><path class="cls-2" d="M22,269.48q9.87,0,14,2.22a10.81,10.81,0,0,1,4.21,3.71,11.91,11.91,0,0,1,1.68,6.36q0,8.43-9.75,11.9a17.83,17.83,0,0,1,9.21,4.92,13,13,0,0,1,4,9.48,14.25,14.25,0,0,1-2.54,8.15q-4.76,7-19,7H3.35A0.34,0.34,0,0,1,3,322.84v-2.07a0.36,0.36,0,0,1,.39-0.43l6.79-.62a0.34,0.34,0,0,0,.39-0.39v-46a0.34,0.34,0,0,0-.39-0.39l-6.79-.66A0.34,0.34,0,0,1,3,271.93v-2.07a0.34,0.34,0,0,1,.39-0.39H22Zm-4.45,23.09a0.34,0.34,0,0,0,.39.39h2.46q6.51,0,9.83-2,4.41-2.65,4.41-8.31a8.28,8.28,0,0,0-3.16-7.06A12.9,12.9,0,0,0,24,273.26l-3-.12h-3a0.34,0.34,0,0,0-.39.39v19Zm0,26.6a0.34,0.34,0,0,0,.39.39h5q14.36,0,14.36-10.81Q37.29,296,21.42,296H17.91a0.35,0.35,0,0,0-.39.39v22.78Z" transform="translate(-2.96 0.01)"/><path class="cls-2" d="M70.29,269.48q10.84,0,15.6,3.35a12.42,12.42,0,0,1,5.58,10.69q0,7.76-7.61,11.78a23,23,0,0,1-5,2q4.13,2,7.76,9l6.87,13.18a0.59,0.59,0,0,0,.58.31l5.81,0.62a0.36,0.36,0,0,1,.39.43v2.07a0.34,0.34,0,0,1-.39.39H87.34a0.59,0.59,0,0,1-.58-0.31l-6.87-14.39q-5-10.38-12.79-10.38H66.16a0.32,0.32,0,0,0-.39.31v20.87a0.37,0.37,0,0,0,.39.39l7.57,0.62a0.4,0.4,0,0,1,.43.43v2.07a0.36,0.36,0,0,1-.43.39H51.45a0.34,0.34,0,0,1-.39-0.39v-2.07a0.36,0.36,0,0,1,.39-0.43l6.79-.62a0.34,0.34,0,0,0,.39-0.39v-46a0.34,0.34,0,0,0-.39-0.39l-6.79-.66a0.34,0.34,0,0,1-.39-0.39v-2.07a0.34,0.34,0,0,1,.39-0.39H70.29Zm-4.52,25a0.31,0.31,0,0,0,.31.39q5.54,0,7.76-.2,5.7-.51,8.31-4.49a9.9,9.9,0,0,0,1.48-5.54q0-11.51-14.67-11.51H66.16a0.34,0.34,0,0,0-.39.39v20.95Z" transform="translate(-2.96 0.01)"/><path class="cls-2" d="M141.8,269.48a0.34,0.34,0,0,1,.39.39v12.52a0.36,0.36,0,0,1-.39.43h-3a0.31,0.31,0,0,1-.39-0.31l-1.6-9a0.31,0.31,0,0,0-.39-0.31H118.16a0.34,0.34,0,0,0-.39.39v19.74a0.34,0.34,0,0,0,.39.39h11c0.29,0,.43-0.1.43-0.31l0.78-6.48a0.31,0.31,0,0,1,.39-0.31h2.18a0.34,0.34,0,0,1,.39.39v17.36a0.34,0.34,0,0,1-.39.39h-2.18a0.31,0.31,0,0,1-.39-0.31l-0.78-6.87a0.35,0.35,0,0,0-.43-0.35h-11a0.36,0.36,0,0,0-.39.43v21.57a0.34,0.34,0,0,0,.39.39h19.39c0.29,0,.43-0.1.43-0.31l1.6-8.89A0.31,0.31,0,0,1,140,310h3a0.34,0.34,0,0,1,.39.39v12.41a0.34,0.34,0,0,1-.39.39H103.61a0.34,0.34,0,0,1-.39-0.39v-2.07a0.36,0.36,0,0,1,.39-0.43l6.79-.62a0.34,0.34,0,0,0,.39-0.39V273.22a0.46,0.46,0,0,0-.39-0.23l-6.79-.66a0.34,0.34,0,0,1-.39-0.39v-2.07a0.34,0.34,0,0,1,.39-0.39H141.8Z" transform="translate(-2.96 0.01)"/><path class="cls-2" d="M148.51,269.87a0.34,0.34,0,0,1,.39-0.39H163a0.6,0.6,0,0,1,.31.16l29.65,39.2V273.69a0.33,0.33,0,0,0-.35-0.39l-5.89-.62a0.36,0.36,0,0,1-.39-0.43v-2.38a0.34,0.34,0,0,1,.39-0.39h16.62a0.34,0.34,0,0,1,.39.39v2.38a0.36,0.36,0,0,1-.39.43l-6,.62a0.35,0.35,0,0,0-.39.39v49.78a0.38,0.38,0,0,1-.47.39h-1.52a0.78,0.78,0,0,1-.39-0.23L160.09,278v41c0,0.29.1,0.43,0.31,0.43l5.85,0.63a0.34,0.34,0,0,1,.39.39v2.42a0.34,0.34,0,0,1-.39.39H149.64a0.36,0.36,0,0,1-.43-0.39v-2.42a0.36,0.36,0,0,1,.43-0.39l6-.62a0.38,0.38,0,0,0,.43-0.43V273.69a0.36,0.36,0,0,0-.43-0.39l-6.79-.62a0.36,0.36,0,0,1-.39-0.43v-2.38Z" transform="translate(-2.96 0.01)"/><path class="cls-2" d="M251.1,269.48a0.34,0.34,0,0,1,.39.39v12.52a0.36,0.36,0,0,1-.39.43h-3a0.31,0.31,0,0,1-.39-0.31l-1.6-9a0.32,0.32,0,0,0-.39-0.31h-13a0.31,0.31,0,0,0-.31.39v45.8a0.37,0.37,0,0,0,.39.39l7.57,0.62a0.4,0.4,0,0,1,.43.43v2.07a0.36,0.36,0,0,1-.43.39h-22.9a0.36,0.36,0,0,1-.43-0.39v-2.07a0.4,0.4,0,0,1,.43-0.43l7.57-.62a0.37,0.37,0,0,0,.39-0.39v-45.8a0.32,0.32,0,0,0-.31-0.39h-13a0.31,0.31,0,0,0-.39.31l-1.6,9a0.32,0.32,0,0,1-.39.31h-3a0.36,0.36,0,0,1-.39-0.43V269.87a0.34,0.34,0,0,1,.39-0.39h44.2Z" transform="translate(-2.96 0.01)"/></g><g class="cls-1"><path class="cls-2" d="M95.61,348.48a0.16,0.16,0,0,1,.19.19v6a0.17,0.17,0,0,1-.19.21H94.19A0.15,0.15,0,0,1,94,354.7l-0.76-4.32a0.15,0.15,0,0,0-.19-0.15H84.32a0.16,0.16,0,0,0-.19.19v9.43a0.16,0.16,0,0,0,.19.19h5.25c0.14,0,.21,0,0.21-0.15l0.37-3.09a0.15,0.15,0,0,1,.19-0.15h1a0.16,0.16,0,0,1,.19.19v8.29a0.16,0.16,0,0,1-.19.19h-1a0.15,0.15,0,0,1-.19-0.15l-0.37-3.28a0.17,0.17,0,0,0-.21-0.17H84.32a0.17,0.17,0,0,0-.19.21v10.3a0.16,0.16,0,0,0,.19.19h9.26q0.21,0,.21-0.15L94.55,368a0.15,0.15,0,0,1,.19-0.15h1.42a0.16,0.16,0,0,1,.19.19V374a0.16,0.16,0,0,1-.19.19H77.37a0.16,0.16,0,0,1-.19-0.19v-1a0.17,0.17,0,0,1,.19-0.21l3.24-.3a0.16,0.16,0,0,0,.19-0.19v-22a0.22,0.22,0,0,0-.19-0.11l-3.24-.32a0.16,0.16,0,0,1-.19-0.19v-1a0.16,0.16,0,0,1,.19-0.19H95.61Z" transform="translate(-2.96 0.01)"/><path class="cls-2" d="M103.8,357.25l0.24,0h1.06a0.16,0.16,0,0,1,.19.19V359a10.1,10.1,0,0,1,4.21-1.9,7.79,7.79,0,0,1,1.68-.17q4.92,0,4.92,5.53v9.85a0.16,0.16,0,0,0,.19.19l2.48,0.26a0.17,0.17,0,0,1,.19.2v1a0.16,0.16,0,0,1-.19.19h-8.35a0.17,0.17,0,0,1-.21-0.19v-1a0.18,0.18,0,0,1,.21-0.2l2.4-.26a0.16,0.16,0,0,0,.19-0.19v-8.74a5,5,0,0,0-.73-3,3.34,3.34,0,0,0-2.83-1.1,8.6,8.6,0,0,0-4,.88,0.41,0.41,0,0,0-.19.15v11.83a0.16,0.16,0,0,0,.19.19l2.4,0.26a0.18,0.18,0,0,1,.21.2v1a0.17,0.17,0,0,1-.21.19H99.35a0.17,0.17,0,0,1-.2-0.19v-1a0.18,0.18,0,0,1,.2-0.2l2.66-.26a0.16,0.16,0,0,0,.19-0.19V359.77a0.16,0.16,0,0,0-.19-0.19l-2.74-.32a0.17,0.17,0,0,1-.21-0.19v-0.87a0.15,0.15,0,0,1,.15-0.19Z" transform="translate(-2.96 0.01)"/><path class="cls-2" d="M125.9,368.92a2.16,2.16,0,0,0-1.34,1.73,1.35,1.35,0,0,0,1.15,1.58,6,6,0,0,0,.88.06h3a19.17,19.17,0,0,1,3.71.26,5,5,0,0,1,3.13,1.79,4.33,4.33,0,0,1,.84,2,5.4,5.4,0,0,1,.07.84,5.6,5.6,0,0,1-1.73,4.14,9,9,0,0,1-4,2.2,13.65,13.65,0,0,1-3.6.45,11.77,11.77,0,0,1-4.86-.89,3.93,3.93,0,0,1-2.65-3.74,4.2,4.2,0,0,1,1.16-2.7,5.88,5.88,0,0,1,2.38-1.77,2.76,2.76,0,0,1-1.56-1.09,3.1,3.1,0,0,1-.6-1.85q0-1.92,2.81-3.61a5.54,5.54,0,0,1-2.7-5,5.82,5.82,0,0,1,2-4.51,6.66,6.66,0,0,1,4.66-1.75,6.87,6.87,0,0,1,2.72.54h5.57a0.16,0.16,0,0,1,.19.19v1a0.18,0.18,0,0,1-.19.19l-3.37.26a5.64,5.64,0,0,1,1.45,3.93,5.76,5.76,0,0,1-1.91,4.42,6.56,6.56,0,0,1-4.61,1.76A7.48,7.48,0,0,1,125.9,368.92Zm0.26,6.3a3,3,0,0,0-1.92,1.33,3.93,3.93,0,0,0-.82,2.3q0,3.58,5,3.58a7.85,7.85,0,0,0,3.87-.86,3.52,3.52,0,0,0,1.88-3.26q0-3.09-4.84-3.09h-3.2Zm2.4-7.51a2.76,2.76,0,0,0,2.72-2.25,7.08,7.08,0,0,0,.26-2.11q0-4.67-3.13-4.67a2.87,2.87,0,0,0-2.89,2.33,7.16,7.16,0,0,0-.28,2.12,5.37,5.37,0,0,0,1.08,3.61A2.81,2.81,0,0,0,128.56,367.71Z" transform="translate(-2.96 0.01)"/><path class="cls-2" d="M142.46,365.49a8.44,8.44,0,0,0,1.45,5,5.36,5.36,0,0,0,4.56,2.11,8.28,8.28,0,0,0,4.47-1.3,0.1,0.1,0,0,1,.13,0l0.09,0.11,0.54,0.93a0.23,0.23,0,0,1-.11.26,11.76,11.76,0,0,1-6.59,2.18,7.61,7.61,0,0,1-5.87-2.31,8.36,8.36,0,0,1-2.1-6,10.19,10.19,0,0,1,2-6.46,7.16,7.16,0,0,1,6-2.89,6.44,6.44,0,0,1,5,1.88,7.38,7.38,0,0,1,1.66,5.14,10.58,10.58,0,0,1-.07,1.23,0.16,0.16,0,0,1-.19.19h-11Zm4.23-6.74q-3,0-3.86,3.32a10.92,10.92,0,0,0-.33,1.94h7.79Q150.45,358.75,146.69,358.75Z" transform="translate(-2.96 0.01)"/><path class="cls-2" d="M161.07,357.25l0.24,0h1.06a0.16,0.16,0,0,1,.19.19V359a10.1,10.1,0,0,1,4.21-1.9,7.79,7.79,0,0,1,1.68-.17q4.92,0,4.92,5.53v9.85a0.16,0.16,0,0,0,.19.19l2.48,0.26a0.17,0.17,0,0,1,.19.2v1a0.16,0.16,0,0,1-.19.19h-8.35a0.17,0.17,0,0,1-.21-0.19v-1a0.18,0.18,0,0,1,.21-0.2l2.4-.26a0.16,0.16,0,0,0,.19-0.19v-8.74a5,5,0,0,0-.73-3,3.34,3.34,0,0,0-2.83-1.1,8.6,8.6,0,0,0-4,.88,0.41,0.41,0,0,0-.19.15v11.83a0.16,0.16,0,0,0,.19.19l2.4,0.26a0.18,0.18,0,0,1,.21.2v1a0.17,0.17,0,0,1-.21.19h-8.53a0.17,0.17,0,0,1-.2-0.19v-1a0.18,0.18,0,0,1,.2-0.2l2.66-.26a0.16,0.16,0,0,0,.19-0.19V359.77a0.16,0.16,0,0,0-.19-0.19l-2.74-.32a0.17,0.17,0,0,1-.21-0.19v-0.87a0.15,0.15,0,0,1,.15-0.19Z" transform="translate(-2.96 0.01)"/><path class="cls-2" d="M182.54,347.25a0.6,0.6,0,0,1,.19,0h1.12a0.16,0.16,0,0,1,.19.19V359A10.35,10.35,0,0,1,189.9,357q4.94,0,4.94,5.53v9.85a0.16,0.16,0,0,0,.19.19l2.48,0.26a0.17,0.17,0,0,1,.19.2v1a0.16,0.16,0,0,1-.19.19h-8.36A0.16,0.16,0,0,1,189,374v-1a0.17,0.17,0,0,1,.19-0.2l2.4-.26a0.17,0.17,0,0,0,.21-0.19v-8.74q0-4.12-3.56-4.12a10.83,10.83,0,0,0-3.07.52,4.33,4.33,0,0,0-.89.35,0.24,0.24,0,0,0-.19.22v11.75a0.16,0.16,0,0,0,.19.19l2.4,0.26a0.17,0.17,0,0,1,.19.2v1a0.16,0.16,0,0,1-.19.19h-8.55a0.16,0.16,0,0,1-.19-0.19v-1a0.17,0.17,0,0,1,.19-0.2l2.68-.26a0.17,0.17,0,0,0,.19-0.19v-22.6a0.17,0.17,0,0,0-.19-0.19l-3-.3a0.17,0.17,0,0,1-.19-0.21V348.2a0.15,0.15,0,0,1,.15-0.19Z" transform="translate(-2.96 0.01)"/><path class="cls-2" d="M209.31,372.47a7.56,7.56,0,0,1-5.22,2.22,3.89,3.89,0,0,1-3.95-2.4,4.21,4.21,0,0,1-.34-1.68A4.85,4.85,0,0,1,203,366a9,9,0,0,1,2-.65,33.47,33.47,0,0,1,4.06-.62v-2.94q0-3-2.91-3a6.55,6.55,0,0,0-2.89.6,0.68,0.68,0,0,0-.19.32l-0.54,2.81a0.16,0.16,0,0,1-.19.17h-1.19a0.16,0.16,0,0,1-.19-0.17v-4.23a0.23,0.23,0,0,1,.19-0.19,17,17,0,0,1,5.72-1.08q3.82,0,5,2.29a4.87,4.87,0,0,1,.43,2.18v10.3a0.24,0.24,0,0,0,.15.22l2.4,0.69a0.44,0.44,0,0,1,.21.19v0.65a0.24,0.24,0,0,1-.17.2l-5,.67a0.16,0.16,0,0,1-.19-0.19Zm-0.26-6.26a12.64,12.64,0,0,0-2.94.43l-0.91.3a2.79,2.79,0,0,0-2,2.94,2.16,2.16,0,0,0,2.44,2.44,5.32,5.32,0,0,0,1.71-.35,15.35,15.35,0,0,0,1.49-.69,0.35,0.35,0,0,0,.19-0.22v-4.84Z" transform="translate(-2.96 0.01)"/><path class="cls-2" d="M227.55,357a4.94,4.94,0,0,1,2.7,1.12,0.28,0.28,0,0,1,.09.15,0.17,0.17,0,0,1,0,.19l-1.88,2.68a0.36,0.36,0,0,1-.21.19,0.12,0.12,0,0,1-.09,0,2.56,2.56,0,0,0-1.84-.84,2.84,2.84,0,0,0-2.2,1.1L223,362.9a0.59,0.59,0,0,0-.15.41v9.05a0.18,0.18,0,0,0,.19.19l3.24,0.26a0.19,0.19,0,0,1,.21.2v1a0.17,0.17,0,0,1-.21.19h-9.37a0.17,0.17,0,0,1-.2-0.19v-1a0.18,0.18,0,0,1,.2-0.2l2.66-.26a0.16,0.16,0,0,0,.19-0.19V359.77a0.16,0.16,0,0,0-.19-0.19l-2.74-.32a0.17,0.17,0,0,1-.21-0.19v-0.87a0.15,0.15,0,0,1,.15-0.19l4.58-.76,0.24,0h1.06a0.16,0.16,0,0,1,.19.19v3.54l2-2.37A3.64,3.64,0,0,1,227.55,357Z" transform="translate(-2.96 0.01)"/><path class="cls-2" d="M231.41,374.15a0.17,0.17,0,0,1-.21-0.19v-1a0.18,0.18,0,0,1,.21-0.2l2.66-.26a0.17,0.17,0,0,0,.19-0.19V359.77a0.17,0.17,0,0,0-.19-0.19l-2.76-.32a0.16,0.16,0,0,1-.19-0.19v-0.87a0.15,0.15,0,0,1,.15-0.19l4.58-.76,0.22,0h1.08a0.17,0.17,0,0,1,.19.19v15a0.16,0.16,0,0,0,.19.19l2.48,0.26a0.18,0.18,0,0,1,.21.2v1a0.17,0.17,0,0,1-.21.19h-8.61Zm4.19-25.87a2,2,0,0,1,1.47.57,2.14,2.14,0,0,1,0,2.92,2,2,0,0,1-1.47.57,2,2,0,0,1-1.48-.57,2.11,2.11,0,0,1,0-2.92A2,2,0,0,1,235.6,348.28Z" transform="translate(-2.96 0.01)"/><path class="cls-2" d="M251.69,372.47a7.56,7.56,0,0,1-5.22,2.22,3.89,3.89,0,0,1-3.95-2.4,4.21,4.21,0,0,1-.34-1.68,4.85,4.85,0,0,1,3.2-4.62,9,9,0,0,1,2-.65,33.46,33.46,0,0,1,4.06-.62v-2.94q0-3-2.91-3a6.55,6.55,0,0,0-2.89.6,0.69,0.69,0,0,0-.19.32l-0.54,2.81a0.16,0.16,0,0,1-.19.17h-1.19a0.16,0.16,0,0,1-.19-0.17v-4.23a0.23,0.23,0,0,1,.19-0.19,17,17,0,0,1,5.72-1.08q3.82,0,5,2.29a4.87,4.87,0,0,1,.43,2.18v10.3a0.24,0.24,0,0,0,.15.22l2.4,0.69a0.44,0.44,0,0,1,.21.19v0.65a0.24,0.24,0,0,1-.17.2l-5,.67a0.16,0.16,0,0,1-.19-0.19Zm-0.26-6.26a12.64,12.64,0,0,0-2.94.43l-0.91.3a2.79,2.79,0,0,0-2,2.94,2.16,2.16,0,0,0,2.44,2.44,5.32,5.32,0,0,0,1.71-.35,15.4,15.4,0,0,0,1.49-.69,0.35,0.35,0,0,0,.19-0.22v-4.84Z" transform="translate(-2.96 0.01)"/></g><path class="cls-3" d="M373.89,333.22a120.56,120.56,0,0,0,14.44-12.75,167.25,167.25,0,0,0,41.8-75c1.92-7.43,1.33-14.78.51-22.3-2.42-22.12-12-41.51-22.31-60.69-5.61-10.4-13-19.5-19.9-29Q350,80.23,311.35,27.15c-1.77-2.44-1.75-2.44-3.32.12q-28.54,46.64-57,93.3c-0.74,1.2-1.34,1.41-2.62.83-5-2.26-10-4.48-15.06-6.54-1.76-.71-1.72-1.28-0.77-2.73q31.51-48.36,62.93-96.78,4.48-6.89,9-13.78A3.66,3.66,0,0,1,305.84,0l5.36,7.18L413.28,145.09c11.37,18.54,22.64,37.11,26.25,59.1,1.57,9.53,3,19.07,2.61,28.76-0.47,10.62-3.41,20.69-7.53,30.39-12,28.18-30.31,51.12-56.18,67.8-1.2.77-2.47,1.44-3.73,2.12A2.26,2.26,0,0,1,373.89,333.22Z" transform="translate(-2.96 0.01)"/><path class="cls-3" d="M313.89,48.3L329.24,69C350,97,371,124.76,391.32,153.05c10.06,14,17.56,29.4,20.62,46.84,3.37,19.18-.9,36.45-10.56,52.82-1,1.74-2.14,3.43-3.17,5.17-0.47.79-.78,1-1.55,0.19-3.13-3.18-3.15-3.15-1.17-7.18a109.25,109.25,0,0,0,9.57-27.2c1.06-5.42-.1-10.64-0.78-15.92-1.85-14.46-8.3-27.18-15-39.83-5.41-10.21-12.8-19-19.49-28.34-17-23.73-34.28-47.33-51.44-71A5.54,5.54,0,0,1,317.9,68c-0.87-1.66-1.44-1.14-2.24.15q-20.55,33.64-41.07,67.27c-0.91,1.5-1.64,1.69-3.15,1-3.23-1.55-6.51-3-9.86-4.29-1.66-.64-1.43-1.23-0.64-2.44q15.93-24.41,31.79-48.87L312.66,50.1C313,49.53,313.39,49,313.89,48.3Z" transform="translate(-2.96 0.01)"/><path class="cls-3" d="M321.62,94.73L307,118.61q-8.32,13.6-16.6,27.22c-0.72,1.19-1.31,1.66-2.72.93a62,62,0,0,0-6.62-2.9c-1.48-.56-1.69-1.08-0.78-2.46,6.07-9.2,12-18.46,18-27.7l20-30.86c0.84-1.3,1.25-1.63,2.34-.15,19,25.66,38.16,51.12,56.84,77,9.75,13.48,15.91,28.55,16,45.59,0,8.78-2.94,16.73-6.77,24.44a82.51,82.51,0,0,1-5.38,9.08c-0.59.88-.89,0.91-1.71,0.16-1.52-1.39-1.69-2.54-.63-4.46a76.09,76.09,0,0,0,8.39-22.62c0.84-4.42-.11-8.71-0.75-13-1.55-10.76-6.46-20.21-11.55-29.58-4.36-8-10.25-14.94-15.53-22.29-12.25-17.06-24.63-34-37-51A12.27,12.27,0,0,0,321.62,94.73Z" transform="translate(-2.96 0.01)"/><path class="cls-3" d="M283.87,353.25a65.92,65.92,0,0,1,5-8.22l27.29,2.1a98.57,98.57,0,0,0,47.5-8.17c0.86-.37,1.66-1,2.76-0.87a2.81,2.81,0,0,1-1.62,1.35,103.35,103.35,0,0,1-52.22,15.51A161.65,161.65,0,0,1,283.87,353.25Z" transform="translate(-2.96 0.01)"/><path class="cls-3" d="M264,340.61l0.22,0.14c3.53,1.82,7.45,2,11.24,2.74l1.52,0.29a72.56,72.56,0,0,1-4,7.24,108.12,108.12,0,0,1-37.48-16.54,42.3,42.3,0,0,1-5.86-4.56h21.31a11,11,0,0,1,10.45,7.25C261.9,338.57,262.31,340.06,264,340.61Z" transform="translate(-2.96 0.01)"/><path class="cls-4" d="M91.2,163l0.35,0.34v9.84l-0.37.39Q91.2,168.25,91.2,163Z" transform="translate(-2.96 0.01)"/><path class="cls-2" d="M91.56,173.14q0-4.92,0-9.84c1.11-14.94,6.83-27.41,19.35-36.3,3.8-2.69,8-4.5,12.57-4.21,9.51,0.6,18.29-2.12,27.09-5a94,94,0,0,1,10-2.67,13.38,13.38,0,0,1,9.44,1.47,38.52,38.52,0,0,1,5.94,4.12c5.42,4.4,10.79,8.86,17.71,10.9a13.29,13.29,0,0,1-7.2-.18A56.94,56.94,0,0,1,177,127.8c-5.25-2.32-10.35-2.69-15.85-.34-6.4,2.73-13.3,3.6-20.26,3.82-5.86.19-11.74,0.11-17.56,1.1-6.92,1.18-12,4.82-15.84,10.67-9.8,14.84-10,30.43-4.08,46.57a71.33,71.33,0,0,0,26.71,34.79c5.31,3.71,11.51,5.44,17.55,7.48,12.4,4.2,25.06,7.54,37.61,11.27a4.47,4.47,0,0,1,1.78.86c-2.68,0-5.37.07-8,0a146.92,146.92,0,0,1-38.33-6C118,231.13,104,215.44,96,193.69A71.73,71.73,0,0,1,91.56,173.14Z" transform="translate(-2.96 0.01)"/><path class="cls-2" d="M283.87,353.25c-5.55,9.29-10.88,18.67-13.06,29.45a25.22,25.22,0,0,0,1.3,15.5,6.08,6.08,0,0,1,.54,3.43c-0.08.49,0,1.18-.66,1.29s-0.74-.57-1-1c-2.31-4.68-3.22-9.74-4-14.82a59.73,59.73,0,0,1,5.35-34.42,16.27,16.27,0,0,0,.57-1.65,72.71,72.71,0,0,0,4-7.24c7-11.24,15.15-21.69,21.87-33.11a82.17,82.17,0,0,0,10.51-30.45,18.11,18.11,0,0,1,.65-2.45,1.53,1.53,0,0,1,.31-0.42,76.86,76.86,0,0,1-7.4,41.77c-4,8.24-8.47,16.15-13.12,24-0.36.61-.64,1.27-1,1.91A65.91,65.91,0,0,0,283.87,353.25Z" transform="translate(-2.96 0.01)"/><path class="cls-2" d="M300.43,222.67c-6.18-7.37-12.32-14.69-15.32-24.07-2.13-6.64-4.39-13.22-5.93-20-2.27-10-8.11-18-14.26-26-9.66-12.52-23-17.9-37.72-21-3.5-.73-7-1.44-10.86-2.23a27.91,27.91,0,0,1,8.36-1.21,53.28,53.28,0,0,1,25.07,5.89,86.57,86.57,0,0,1,34.69,30.8,36.43,36.43,0,0,1,6.2,18.27c0.45,8.38,3.27,16.18,5.53,24.18C297.65,212.41,299,217.54,300.43,222.67Z" transform="translate(-2.96 0.01)"/><path class="cls-2" d="M264,340.61c0-3.2,1.1-6.14,2.14-9.08,2.62-7.43,5.33-14.82,8-22.23,3.83-10.6,3.89-21.46,2.12-32.41-0.75-4.63-1.82-9.2-2.72-13.8a12.43,12.43,0,0,1-.11-4.53c3.46,5.28,7.46,9.86,9.75,15.58,4.76,11.93,4.15,23.84.11,35.74-4,11.74-10.71,21.81-19.07,30.87Z" transform="translate(-2.96 0.01)"/><path class="cls-2" d="M352.39,247.77a17.88,17.88,0,0,1-4.26,2.38,95.69,95.69,0,0,1-18.81,6.46c-4.62,1-9.36.56-14,.73-13.53.48-24.44-5.24-33.89-14.39a6.93,6.93,0,0,1-.65-0.73,1,1,0,0,1-.09-0.37,1.36,1.36,0,0,1,1.43,0c5.38,1.34,10.66,3,15.88,4.83,9.22,3.22,18.74,3,28.26,2.72,8.6-.23,17.22-0.4,25.74-1.81A1.36,1.36,0,0,1,352.39,247.77Z" transform="translate(-2.96 0.01)"/><path class="cls-2" d="M210.11,182.61c1.33,7.83,2.61,15.68,4,23.5a51.37,51.37,0,0,0,4.07,12.41c4.29,9.3,4.76,18.84,2.44,28.65C220.18,249,220.16,251,219,253a100,100,0,0,0-4.46-23.72c-1.29-3.89-2.59-7.78-4-11.66-3.36-9.57-4.43-19.26-1.77-29.2,0.51-1.92.67-3.92,1-5.89Z" transform="translate(-2.96 0.01)"/><path class="cls-2" d="M246.06,229a11.47,11.47,0,0,1,4.77,3.64c2.27,2.82,5.22,3.89,8.75,4,5.3,0.12,10.51-1.18,15.81-.86,1.52,0.09,3,0,4.59.24-4,1.44-7.43,3.84-11.27,5.39a27.65,27.65,0,0,1-5.77,1.78,12.1,12.1,0,0,1-12.5-5.06A28.68,28.68,0,0,1,246.06,229Z" transform="translate(-2.96 0.01)"/><path class="cls-2" d="M368.51,237.3a38.64,38.64,0,0,1-8.07,3.67c-7.68,2.73-15.41,5.24-23.68,5.42a13.52,13.52,0,0,1-4.26-.47,5.62,5.62,0,0,1-2.38-1.29c-0.62-.61-1.29-1.37-1-2.18s1.25-.39,1.9-0.4a144.87,144.87,0,0,0,32-4.46A11.83,11.83,0,0,1,368.51,237.3Z" transform="translate(-2.96 0.01)"/><path class="cls-2" d="M245.75,189.3a3.21,3.21,0,0,1,3.65-3.19c2,0.16,4,.52,6,0.73a1.4,1.4,0,0,1,1.37,1.57c0,0.93-.92.72-1.52,0.78-1.17.1-2.34,0.18-3.51,0.2-1.54,0-2.85.31-3.27,2.1-0.23,1-1.07.73-1.76,0.75-0.92,0-.82-0.62-0.84-1.2S245.81,190.13,245.75,189.3Z" transform="translate(-2.96 0.01)"/><path class="cls-5" d="M245.81,200.18c0.42-.53-0.57-1.69.71-2a1.74,1.74,0,0,1,2.3,1.41c0.34,1.11,1.34,1.29,2.36,1.34,1.43,0.07,2.86.11,4.28,0.24,0.52,0,1.33-.07,1.34.77a1.3,1.3,0,0,1-1,1.47,67.44,67.44,0,0,1-7.15.79C246.89,204.24,245.67,202.3,245.81,200.18Z" transform="translate(-2.96 0.01)"/><path class="cls-2" d="M257.83,195.63a4.73,4.73,0,0,1-4,4.36c-0.92.07-1.66-.14-1.21-1.28a13.34,13.34,0,0,0,.68-6.13c-0.08-1.08.36-1.19,1.27-.87A4.44,4.44,0,0,1,257.83,195.63Z" transform="translate(-2.96 0.01)"/><path class="cls-2" d="M118.2,340.47s1.39-.13,3.82-0.3,5.91-.42,10.08-0.65,9-.48,14.26-0.69l8-.3,8.31-.26,8.31-.19c2.74-.07,5.44-0.09,8.05-0.13,5.22-.07,10.1-0.1,14.28-0.08s7.67,0.09,10.1.11,3.83,0.09,3.83.09-1.39.13-3.82,0.3-5.91.43-10.08,0.65-9,.48-14.26.69c-2.61.1-5.31,0.23-8,.3l-8.31.26-8.31.19-8.05.13c-5.22.07-10.1,0.09-14.28,0.08s-7.67-.09-10.1-0.11S118.2,340.47,118.2,340.47Z" transform="translate(-2.96 0.01)"/></svg>