<?xml version="1.0" encoding="iso-8859-1"?>
<!-- Generator: Adobe Illustrator 19.0.0, SVG Export Plug-In . SVG Version: 6.00 Build 0)  -->
<svg xmlns="http://www.w3.org/2000/svg" xmlns:xlink="http://www.w3.org/1999/xlink" version="1.1" id="Layer_1" x="0px" y="0px" viewBox="0 0 511.653 511.653" style="enable-background:new 0 0 511.653 511.653;" xml:space="preserve" width="512px" height="512px">
<g transform="translate(1 1)">
	<g>
		<path d="M505.88,308.586c-13.555-18.074-27.121-20.187-55.925-6.947l-7.221-21.213l-1.707-1.707    c-5.12-4.267-21.333-16.213-28.16-18.773c-8.533-2.56-59.733-1.707-71.68,0c-2.56-0.853-9.387-7.68-13.653-11.093    c-9.674-8.868-20.109-18.489-29.867-14.49V199.36c0-10.869,6.227-19.821,15.452-23.628l-0.092,0.588l54.613-7.68    c49.493-7.68,87.893-46.08,95.573-96.427l8.533-54.613l-54.613,8.533c-50.347,7.68-87.893,46.08-95.573,95.573l-5.561,35.591    c-6.826,1.131-13.063,3.823-18.332,7.726v-85.13c0-33.28,26.453-59.733,59.733-59.733c5.12,0,8.533-3.413,8.533-8.533    s-3.413-8.533-8.533-8.533c-32.912,0-60.728,20.319-71.735,49.188c-10.852-14.38-28.101-23.588-47.731-23.588    c-5.12,0-8.533,3.413-8.533,8.533s3.413,8.533,8.533,8.533c23.893,0,42.667,18.773,42.667,42.667v132.615    c-3.015-1.755-6.317-3.062-9.817-3.827l-5.543-34.921c-7.68-50.347-46.08-87.893-95.573-95.573l-54.613-8.533l8.533,54.613    c7.68,49.493,46.08,87.893,95.573,94.72l52.846,8.257c2.14,1.235,3.988,2.917,5.418,4.922    c-10.708,2.482-25.855,5.522-45.463,9.008c-4.267,0.853-7.68,1.707-9.387,1.707c-8.533-1.707-57.173-15.36-90.453-25.6    l-6.827-1.707l-20.149,39.687c-18.864-3.543-36.414-4.449-46.411-4.66v-25.64H-1V506.56h59.733v-25.6h110.933    c16.213,0,77.653-0.853,96.427-2.56l67.413-17.067c3.413-0.853,7.68-0.853,11.093-1.707c10.24-1.707,19.627-6.827,28.16-14.507    l128.853-102.4C511.853,334.186,513.56,318.826,505.88,308.586z M418.84,44.053l31.573-5.12l-5.12,31.573    c-6.827,42.667-39.253,75.093-81.067,81.067l-18.333,2.973L406.04,94.4c3.413-3.413,3.413-8.533,0-11.947s-8.533-3.413-11.947,0    l-58.963,58.963l2.643-16.296C344.6,82.453,377.027,50.026,418.84,44.053z M141.507,130.24l-5.12-31.573l31.573,5.12    c42.667,6.827,75.093,39.253,81.067,81.067l2.643,16.296L201.24,150.72c-3.413-3.413-8.533-3.413-11.947,0s-3.413,8.533,0,11.947    l51.613,51.613l-18.333-2.973C179.907,204.48,147.48,172.053,141.507,130.24z M132.12,241.173    c85.333,25.6,88.747,24.747,91.307,23.893c0.853,0,4.267-0.853,9.387-1.707c19.75-3.762,35.863-6.746,47.787-9.381v30.715    c0,5.12,3.413,8.533,8.533,8.533s8.533-3.413,8.533-8.533v-35.27c1.32-0.477,2.467-0.95,3.413-1.424    c3.413,1.707,9.387,7.68,13.653,11.093c10.24,9.387,18.773,17.067,28.16,15.36c10.24-1.707,58.027-1.707,64,0    c3.413,1.707,12.8,8.533,21.333,14.507l6.564,20.513l-70.564,43.487c-9.967,5.814-32.061,7.585-52.905,7.676    c4.264-7.679,2.556-17.064-5.122-28.156c-13.653-19.627-36.693-31.573-61.44-31.573h-1.707H211.48    c-17.92,0-34.987-5.12-48.64-15.36c-10.24-7.68-23.893-14.507-40.96-18.773L132.12,241.173z M41.667,489.493h-25.6V250.56h25.6    v8.533V480.96V489.493z M491.373,330.773L361.667,431.466l-0.853,0.853c-5.12,5.973-11.947,9.387-19.627,10.24    c-3.413,0.853-5.973,0.853-9.387,0.853l-69.12,17.067c-16.213,1.707-75.947,3.413-93.013,3.413H58.733V276.16    c8.519,0,22.84,0.71,38.411,3.391l-0.011,0.022l11.093,2.56c2.364,0.411,4.663,0.874,6.902,1.38    c13.09,3.6,25.862,8.874,35.765,16.54c16.213,11.947,36.693,18.773,58.88,18.773h2.56h30.72c19.627,0,37.547,8.533,48.64,24.747    c3.413,5.12,4.267,10.24,3.413,11.947c-0.945,1.576-2.944,2.801-5.641,3.764c-4.177,1.321-10.008,2.209-17.399,2.209v0.783    c-0.285,0.023-0.567,0.048-0.853,0.07h-81.067c-26.453,0-42.667,12.8-42.667,34.133c0,5.12,3.413,8.533,8.533,8.533    c5.12,0,8.533-3.413,8.533-8.533c0-4.267,0-17.067,25.6-17.067h70.827h11.093h0.853c0.915,0,2.162,0,3.413,0    c28.747,0.612,56.176,0.345,76.637-3.625c8.901-1.303,16.495-3.16,22.35-5.762l73.387-45.227l7.68-4.267l-0.328-0.963    c27.43-12.708,30.82-8.338,37.021,0.963C494.787,323.093,494.787,328.213,491.373,330.773z" fill="#FFFFFF"/>
	</g>
</g>
<g>
</g>
<g>
</g>
<g>
</g>
<g>
</g>
<g>
</g>
<g>
</g>
<g>
</g>
<g>
</g>
<g>
</g>
<g>
</g>
<g>
</g>
<g>
</g>
<g>
</g>
<g>
</g>
<g>
</g>
</svg>
